<svg width="32" height="32" viewBox="0 0 32 32" fill="none" xmlns="http://www.w3.org/2000/svg">
<path fill-rule="evenodd" clip-rule="evenodd" d="M4 6C4 4.89543 4.89543 4 6 4H26C27.1046 4 28 4.89543 28 6V20C28 21.1046 27.1046 22 26 22H10.8284L6.41421 26.4142C5.63317 27.1953 4.36683 27.1953 3.58579 26.4142C3.20536 26.0338 3 25.5174 3 25V6C3 4.89543 3.89543 4 5 4H6V6H5V25L9.41421 20.5858C9.79464 20.2054 10.3111 20 10.8284 20H26V6H6V4H26C27.1046 4 28 4.89543 28 6V20C28 21.1046 27.1046 22 26 22H10.8284L6.41421 26.4142C5.63317 27.1953 4.36683 27.1953 3.58579 26.4142L3 25V6C3 4.89543 3.89543 4 5 4H6V6H4Z" fill="#212121"/>
</svg>