<svg width="32" height="32" viewBox="0 0 32 32" fill="none" xmlns="http://www.w3.org/2000/svg">
<rect x="5" y="5" width="6" height="6" rx="1" fill="#212121"/>
<rect x="21" y="5" width="6" height="6" rx="1" fill="#212121"/>
<rect x="13" y="13" width="6" height="6" rx="1" fill="#212121"/>
<rect x="5" y="21" width="6" height="6" rx="1" fill="#212121"/>
<rect x="21" y="21" width="6" height="6" rx="1" fill="#212121"/>
<path d="M8 11V13.5C8 14.0523 8.44772 14.5 9 14.5H13" stroke="#212121" stroke-width="2" stroke-linecap="round"/>
<path d="M19 14.5H23C23.5523 14.5 24 14.0523 24 13.5V11" stroke="#212121" stroke-width="2" stroke-linecap="round"/>
<path d="M16 19V21.5C16 22.0523 15.5523 22.5 15 22.5H11" stroke="#212121" stroke-width="2" stroke-linecap="round"/>
<path d="M16 19V21.5C16 22.0523 16.4477 22.5 17 22.5H21" stroke="#212121" stroke-width="2" stroke-linecap="round"/>
<path d="M16 13V13.5C16 14.0523 15.5523 14.5 15 14.5H13" stroke="#212121" stroke-width="2" stroke-linecap="round"/>
<path d="M16 13V13.5C16 14.0523 16.4477 14.5 17 14.5H19" stroke="#212121" stroke-width="2" stroke-linecap="round"/>
<path d="M16 19V19.5C16 20.0523 15.5523 20.5 15 20.5H13" stroke="#212121" stroke-width="2" stroke-linecap="round"/>
<path d="M16 19V19.5C16 20.0523 16.4477 20.5 17 20.5H19" stroke="#212121" stroke-width="2" stroke-linecap="round"/>
<path d="M8 11V13.5C8 14.0523 8.44772 14.5 9 14.5H13" stroke="#212121" stroke-width="2" stroke-linecap="round"/>
<path d="M24 11V13.5C24 14.0523 23.5523 14.5 23 14.5H19" stroke="#212121" stroke-width="2" stroke-linecap="round"/>
<path d="M8 21V19.5C8 18.9477 8.44772 18.5 9 18.5H13" stroke="#212121" stroke-width="2" stroke-linecap="round"/>
<path d="M24 21V19.5C24 18.9477 23.5523 18.5 23 18.5H19" stroke="#212121" stroke-width="2" stroke-linecap="round"/>
<path d="M16 19V19.5C16 20.0523 15.5523 20.5 15 20.5H13" stroke="#212121" stroke-width="2" stroke-linecap="round"/>
<path d="M16 19V19.5C16 20.0523 16.4477 20.5 17 20.5H19" stroke="#212121" stroke-width="2" stroke-linecap="round"/>
<path d="M16 13V13.5C16 14.0523 15.5523 14.5 15 14.5H13" stroke="#212121" stroke-width="2" stroke-linecap="round"/>
<path d="M16 13V13.5C16 14.0523 16.4477 14.5 17 14.5H19" stroke="#212121" stroke-width="2" stroke-linecap="round"/>
<path d="M8 11V13.5C8 14.0523 8.44772 14.5 9 14.5H13" stroke="#212121" stroke-width="2" stroke-linecap="round"/>
<path d="M24 11V13.5C24 14.0523 23.5523 14.5 23 14.5H19" stroke="#212121" stroke-width="2" stroke-linecap="round"/>
<path d="M8 21V19.5C8 18.9477 8.44772 18.5 9 18.5H13" stroke="#212121" stroke-width="2" stroke-linecap="round"/>
<path d="M24 21V19.5C24 18.9477 23.5523 18.5 23 18.5H19" stroke="#212121" stroke-width="2" stroke-linecap="round"/>
<path d="M16 19V21.5C16 22.0523 15.5523 22.5 15 22.5H11" stroke="#212121" stroke-width="2" stroke-linecap="round"/>
<path d="M16 19V21.5C16 22.0523 16.4477 22.5 17 22.5H21" stroke="#212121" stroke-width="2" stroke-linecap="round"/>
<path d="M16 13V10.5C16 9.94772 15.5523 9.5 15 9.5H11" stroke="#212121" stroke-width="2" stroke-linecap="round"/>
<path d="M16 13V10.5C16 9.94772 16.4477 9.5 17 9.5H21" stroke="#212121" stroke-width="2" stroke-linecap="round"/>
</svg>