<svg width="64" height="64" viewBox="0 0 64 64" fill="none" xmlns="http://www.w3.org/2000/svg">
<rect width="64" height="64" fill="white"/>
<path d="M32 0L48 16L32 32L16 16L32 0Z" fill="#FF4500"/>
<path d="M32 32L48 48L32 64L16 48L32 32Z" fill="#FF8C00"/>
<path d="M0 16L16 32L0 48L0 16Z" fill="#FF4500"/>
<path d="M64 16L48 32L64 48L64 16Z" fill="#FF4500"/>
<path d="M16 32L32 48L16 64L0 48L16 32Z" fill="#FF8C00"/>
<path d="M48 32L32 48L48 64L64 48L48 32Z" fill="#FF8C00"/>
<path d="M16 0L32 16L16 32L0 16L16 0Z" fill="#FF8C00"/>
<path d="M48 0L32 16L48 32L64 16L48 0Z" fill="#FF8C00"/>
</svg>